<?xml version="1.0" encoding="UTF-8" standalone="no"?>
<!-- Created with Inkscape (http://www.inkscape.org/) -->

<svg
   xmlns:dc="http://purl.org/dc/elements/1.1/"
   xmlns:cc="http://creativecommons.org/ns#"
   xmlns:rdf="http://www.w3.org/1999/02/22-rdf-syntax-ns#"
   xmlns:svg="http://www.w3.org/2000/svg"
   xmlns="http://www.w3.org/2000/svg"
   xmlns:sodipodi="http://sodipodi.sourceforge.net/DTD/sodipodi-0.dtd"
   xmlns:inkscape="http://www.inkscape.org/namespaces/inkscape"
   width="381.02563mm"
   height="88.052422mm"
   viewBox="0 0 381.02563 88.052422"
   version="1.1"
   id="svg8"
   inkscape:version="0.92.3 (2405546, 2018-03-11)"
   sodipodi:docname="logo-white.svg">
  <defs
     id="defs2" />
  <sodipodi:namedview
     id="base"
     pagecolor="#ffffff"
     bordercolor="#666666"
     borderopacity="1.0"
     inkscape:pageopacity="0.0"
     inkscape:pageshadow="2"
     inkscape:zoom="0.35"
     inkscape:cx="-58.523005"
     inkscape:cy="300.68401"
     inkscape:document-units="mm"
     inkscape:current-layer="layer1"
     showgrid="false"
     fit-margin-top="0"
     fit-margin-left="0"
     fit-margin-right="0"
     fit-margin-bottom="0"
     inkscape:window-width="1920"
     inkscape:window-height="1001"
     inkscape:window-x="-9"
     inkscape:window-y="-9"
     inkscape:window-maximized="1" />
  <metadata
     id="metadata5">
    <rdf:RDF>
      <cc:Work
         rdf:about="">
        <dc:format>image/svg+xml</dc:format>
        <dc:type
           rdf:resource="http://purl.org/dc/dcmitype/StillImage" />
        <dc:title></dc:title>
      </cc:Work>
    </rdf:RDF>
  </metadata>
  <g
     inkscape:label="Layer 1"
     inkscape:groupmode="layer"
     id="layer1"
     transform="translate(24.203288,-140.33689)">
    <g
       id="g868"
       transform="matrix(1.3229167,0,0,1.3229167,-24.203287,140.33689)">
      <defs
         id="SvgjsDefs3666" />
      <g
         style="fill:#ffffff"
         transform="translate(79.189362,-187.57133)"
         name="main_text"
         rel="mainfill"
         id="SvgjsG3667">
        <path
           id="path816"
           style="fill:#ffffff"
           d="m 26.6,201.4 c -2.09,0 -4.52,-0.28 -6.28,0.93 -5.01,3.53 -2.97,15.7 -9.97,15.7 v -13.61 l 2.1,-1.43 V 201.4 H 2.7 v 1.59 l 2.09,1.43 c 0,10.8 0,21.54 0,32.33 l -2.42,1.65 v 1.6 c 3.14,0 7.27,0 10.46,0 v -1.6 l -2.48,-1.65 c 0,-5.23 0,-10.41 0,-15.64 h 1.66 c 3.46,0 4.73,2.75 5.45,6.17 l 1.59,7.65 c 0.67,3.09 1.88,5.4 5.4,5.4 0.99,0 2.59,-0.11 3.69,-0.72 v -2.14 c -1.71,0.38 -2.86,-1.44 -3.25,-3.25 l -1.71,-8.04 c -0.77,-3.53 -2.31,-6.94 -5.17,-7.22 v -0.11 c 2.53,-0.82 4.24,-9.8 5.45,-12.66 0.72,-1.71 1.27,-2.7 3.14,-2.65 z m 10.96,35.46 c 0,-8.04 0,-16.02 0,-24.06 l -0.28,-7.11 h 0.28 c 2.04,10.91 3.8,21.26 5.61,32.22 0.17,1.04 0.72,1.54 1.88,1.54 h 4.57 l 6.06,-34.14 h 0.22 l -0.17,5.5 c 0,8.65 0,17.29 0,25.94 l -2.42,1.65 v 1.6 c 3.14,0 7.38,0 10.52,0 v -1.6 l -2.43,-1.65 c 0,-10.79 0,-21.53 0,-32.33 l 2.15,-1.43 v -1.59 c -3.14,0 -4.85,0.05 -7.98,0.05 -2.1,-0.05 -2.81,0.33 -3.25,2.37 l -4.9,29.08 h -0.11 c -1.27,-10.8 -2.48,-18.07 -4.52,-28.92 -0.5,-2.09 -1.21,-2.58 -3.25,-2.58 -2.92,0 -5.18,0 -8.1,0 v 1.59 l 2.21,1.43 c 0,10.8 0,21.65 0,32.44 l -2.32,1.43 V 240 c 2.7,0 5.84,0 8.54,0 v -1.71 z M 68.95,222.6 v 0 c 6.17,0 4.4,0 10.57,0 v -3.36 H 68.95 Z m 21.97,14.26 c 0,-8.04 0,-16.02 0,-24.06 l -0.27,-7.11 h 0.27 c 2.04,10.91 3.8,21.26 5.62,32.22 0.16,1.04 0.71,1.54 1.87,1.54 h 4.57 l 6.06,-34.14 h 0.22 l -0.17,5.5 c 0,8.65 0,17.29 0,25.94 l -2.42,1.65 v 1.6 c 3.14,0 7.38,0 10.52,0 v -1.6 l -2.42,-1.65 c 0,-10.79 0,-21.53 0,-32.33 l 2.14,-1.43 v -1.59 c -3.14,0 -4.84,0.05 -7.98,0.05 -2.09,-0.05 -2.81,0.33 -3.25,2.37 l -4.9,29.08 h -0.11 c -1.27,-10.8 -2.48,-18.07 -4.52,-28.92 -0.49,-2.09 -1.21,-2.58 -3.25,-2.58 -2.92,0 -5.17,0 -8.09,0 v 1.59 l 2.2,1.43 c 0,10.8 0,21.65 0,32.44 l -2.31,1.43 V 240 c 2.7,0 5.84,0 8.53,0 v -1.71 z m 51.77,3.14 v -8.65 h -2.43 l -1.87,5.29 c -3.14,0 -6.22,0 -9.36,0 v -0.27 c 0.94,-0.34 1.16,-0.83 1.16,-1.71 0,-4.08 0,-8.1 0,-12.17 h 5.28 l 1.43,2.92 h 1.66 c 0,-2.7 0,-6.61 0,-9.31 h -1.66 l -1.43,3.03 h -5.28 c 0,-4.85 0,-9.69 0,-14.48 h 7.49 l 1.54,5.39 h 2.75 v -8.64 c -6.72,0 -12.89,0 -19.6,0 v 1.43 l 2.09,1.43 c 0,10.79 0,21.64 0,32.49 l -2.48,1.65 v 1.6 c 6.94,0 13.82,0 20.71,0 z m 26.98,-14.32 c 0,-3.58 -1.71,-5.56 -4.24,-6.55 1.98,-0.83 3.08,-2.92 3.08,-5.07 v -5.56 c 0,-5.67 -3.58,-7.05 -8.7,-7.05 h -12.17 v 1.54 l 2.1,1.43 c 0,10.8 0,21.54 0,32.33 l -2.48,1.65 v 1.6 h 12.61 c 6.44,0 9.8,-2.31 9.8,-7.82 z m -15.53,11.02 v -0.28 c 0.94,-0.33 1.16,-0.83 1.16,-1.82 0,-4.29 0,-9.36 0,-13.65 h 3.96 c 3.42,0 4.68,1.54 4.68,4.73 v 6.5 c 0,2.86 -1.26,4.52 -4.18,4.52 z m 5.23,-18.51 c -1.54,0 -2.53,0 -4.07,0 0,-4.79 0,-8.75 0,-13.54 h 4.07 c 2.26,0 3.42,1.76 3.42,3.85 v 5.56 c 0,2.54 -0.99,4.13 -3.42,4.13 z M 194.89,240 v -8.65 h -2.42 l -1.87,5.29 c -3.14,0 -5.67,0 -8.81,0 v -0.27 c 0.93,-0.34 1.15,-0.83 1.15,-1.71 0,-10.08 0,-20.16 0,-30.24 l 2.1,-1.43 v -1.59 h -9.92 v 1.59 l 2.1,1.43 c 0,10.8 0,21.54 0,32.33 l -2.48,1.65 v 1.6 c 6.88,0 13.21,0 20.15,0 z m 11.51,-35.58 2.1,-1.43 v -1.59 h -9.75 v 1.59 l 2.09,1.43 c 0,10.8 0,21.54 0,32.33 l -2.48,1.65 v 1.6 c 3.2,0 7.33,0 10.47,0 v -1.6 l -2.43,-1.65 c 0,-10.79 0,-21.53 0,-32.33 z"
           inkscape:connector-curvature="0" />
      </g>
      <g
         style="fill:#ffffff"
         transform="matrix(0.74,0,0,0.74,-3.8551135,-3.8687198)"
         name="symbol"
         rel="mainfill"
         id="SvgjsG3668">
        <circle
           id="circle819"
           r="10.274501"
           cy="33.198265"
           cx="50.011597" />
        <ellipse
           id="ellipse821"
           ry="8.8314695"
           rx="6.1090407"
           cy="20.729076"
           cx="64.641724"
           transform="rotate(125.75821,64.641723,20.729078)" />
        <path
           id="path823"
           style="fill:#ffffff"
           d="m 72.899612,17.306473 c 2.666748,1.819576 5.605767,2.158632 6.564759,0.754654 0.962051,-1.405504 -0.417611,-4.025314 -3.080109,-5.846362 -2.668388,-1.82165 -5.605881,-2.159341 -6.569237,-0.753128 -0.959205,1.404141 0.420563,4.022315 3.084587,5.844836 z"
           inkscape:connector-curvature="0" />
        <path
           id="path825"
           style="fill:#ffffff"
           d="m 49.354095,12.865778 c 3.996583,0.05365 7.260644,-1.611532 7.289975,-3.7149906 0.02802,-2.1086378 -3.187519,-3.8656812 -7.181157,-3.9215636 -3.999416,-0.052829 -7.260643,1.6108232 -7.292919,3.7207694 -0.02508,2.1042218 3.188935,3.8620288 7.184101,3.9157848 z"
           inkscape:connector-curvature="0" />
        <path
           id="path827"
           style="fill:#ffffff"
           d="m 28.11212,25.978455 c 1.971086,2.73817 6.779565,2.645542 10.736566,-0.202921 3.959728,-2.852225 5.568806,-7.380478 3.597832,-10.120175 -1.974034,-2.738988 -6.781094,-2.646196 -10.737879,0.204557 -3.959835,2.846936 -5.569023,7.378951 -3.596519,10.118539 z"
           inkscape:connector-curvature="0" />
        <path
           id="path829"
           style="fill:#ffffff"
           d="m 27.219315,17.59477 c 2.665332,-1.823121 4.045103,-4.440695 3.086002,-5.8456 -0.96488,-1.406048 -3.902373,-1.067757 -6.567816,0.753128 -2.663805,1.821813 -4.043577,4.44015 -3.08164,5.847126 0.959101,1.403977 3.89801,1.064923 6.563454,-0.754654 z"
           inkscape:connector-curvature="0" />
        <circle
           id="circle831"
           r="10.275041"
           cy="50.031002"
           cx="33.178833" />
        <ellipse
           id="ellipse833"
           ry="8.8321218"
           rx="6.1096339"
           cy="64.66037"
           cx="20.709595"
           transform="rotate(144.24108,20.709594,64.660373)" />
        <path
           id="path835"
           style="fill:#ffffff"
           d="m 11.509617,69.768578 c -1.406267,0.962639 -1.069449,3.900894 0.753128,6.567703 1.821049,2.663208 4.439169,4.042923 5.845436,3.081039 1.403431,-0.959152 1.065086,-3.89801 -0.754656,-6.564812 -1.822357,-2.664733 -4.440694,-4.042922 -5.843908,-3.08393 z"
           inkscape:connector-curvature="0" />
        <path
           id="path837"
           style="fill:#ffffff"
           d="m 12.846754,49.373936 c -0.05452,-3.995926 -1.812435,-7.209942 -3.915676,-7.184208 -2.1108727,0.03238 -3.7745795,3.293449 -3.7201691,7.292209 0.054519,3.993695 1.812326,7.209233 3.9215631,7.181973 2.103458,-0.02939 3.768583,-3.294155 3.714282,-7.289974 z"
           inkscape:connector-curvature="0" />
        <path
           id="path839"
           style="fill:#ffffff"
           d="m 15.635518,42.465542 c 2.740461,1.971847 7.267949,0.36195 10.121701,-3.597229 2.847754,-3.957493 2.940436,-8.766083 0.201393,-10.73717 -2.74035,-1.971794 -7.270893,-0.362552 -10.118538,3.596467 -2.850698,3.957708 -2.942072,8.764719 -0.204556,10.737932 z"
           inkscape:connector-curvature="0" />
        <path
           id="path841"
           style="fill:#ffffff"
           d="m 17.575746,27.238993 c 1.818104,-2.666043 2.157868,-5.605061 0.753129,-6.564055 -1.406268,-0.961281 -4.024496,0.417835 -5.845436,3.081642 -1.821159,2.665442 -2.159396,5.604298 -0.753237,6.567107 1.403323,0.958992 4.021551,-0.419199 5.845544,-3.084694 z"
           inkscape:connector-curvature="0" />
        <path
           id="path843"
           style="fill:#ffffff"
           d="m 57.616363,74.469002 c 4.011303,-4.01207 4.014355,-10.519531 0.0031,-14.532307 -4.012829,-4.012665 -10.521763,-4.010536 -14.534374,0.0015 -4.012829,4.012771 -4.011303,10.518707 0.0013,14.53154 4.012829,4.012008 10.517403,4.012008 14.53001,-7.63e-4 z"
           inkscape:connector-curvature="0" />
        <ellipse
           id="ellipse845"
           ry="8.8321686"
           rx="6.1095729"
           cy="79.672882"
           cx="35.722168"
           transform="rotate(-54.235304,35.722172,79.672884)" />
        <path
           id="path847"
           style="fill:#ffffff"
           d="m 27.529636,83.028397 c -2.666858,-1.819519 -5.605878,-2.158577 -6.56487,-0.754601 -0.962044,1.406212 0.417835,4.025261 3.081642,5.846367 2.666858,1.821808 5.604351,2.15934 6.567922,0.753838 0.958994,-1.404686 -0.420669,-4.023026 -3.084694,-5.845604 z"
           inkscape:connector-curvature="0" />
        <path
           id="path849"
           style="fill:#ffffff"
           d="m 51.007332,87.535385 c -3.994946,-0.05359 -7.260426,1.611427 -7.288338,3.715645 -0.02802,2.107826 3.187515,3.865631 7.181046,3.920746 3.999527,0.05305 7.259117,-1.609841 7.29161,-3.719948 0.02639,-2.104225 -3.187736,-3.86203 -7.184318,-3.916443 z"
           inkscape:connector-curvature="0" />
        <path
           id="path851"
           style="fill:#ffffff"
           d="m 72.250832,74.423363 c -1.971085,-2.738823 -6.779564,-2.646195 -10.737874,0.203033 -3.958309,2.851463 -5.567607,7.380478 -3.594993,10.120064 1.972504,2.738174 6.778042,2.646309 10.736347,-0.205155 3.959839,-2.846229 5.569023,-7.378242 3.59652,-10.117942 z"
           inkscape:connector-curvature="0" />
        <path
           id="path853"
           style="fill:#ffffff"
           d="m 73.098061,82.762237 c -2.665329,1.823174 -4.04216,4.441514 -3.082947,5.84549 0.961937,1.406212 3.900848,1.067917 6.566177,-0.753128 2.663918,-1.821053 4.04216,-4.439987 3.081642,-5.846199 -0.958992,-1.404144 -3.89801,-1.065086 -6.564872,0.753837 z"
           inkscape:connector-curvature="0" />
        <circle
           id="circle855"
           r="10.275079"
           cy="50.370056"
           cx="67.184204" />
        <path
           id="path857"
           style="fill:#ffffff"
           d="m 84.609673,32.170467 c -2.846116,-3.959779 -7.378182,-5.569076 -10.117119,-3.596464 -2.738823,1.971085 -2.647667,6.778856 0.203026,10.737932 2.850807,3.956726 7.38124,5.568261 10.120071,3.5957 2.73893,-1.972611 2.646248,-6.779621 -0.205978,-10.737168 z"
           inkscape:connector-curvature="0" />
        <path
           id="path859"
           style="fill:#ffffff"
           d="m 88.921051,30.56706 c 1.406265,-0.963409 1.067925,-3.901609 -0.754547,-6.56847 -1.820938,-2.66315 -4.439278,-4.04216 -5.845543,-3.080877 -1.40332,0.959047 -1.064865,3.898066 0.754654,6.564871 1.822357,2.66457 4.440803,4.042759 5.845436,3.084476 z"
           inkscape:connector-curvature="0" />
        <path
           id="path861"
           style="fill:#ffffff"
           d="m 91.23201,43.738018 c -2.103569,0.02862 -3.768692,3.293449 -3.715592,7.289211 0.05299,3.996529 1.812111,7.210541 3.915566,7.184044 2.110878,-0.03222 3.774475,-3.292629 3.721481,-7.292209 -0.05583,-3.993531 -1.813637,-7.209069 -3.921455,-7.181046 z"
           inkscape:connector-curvature="0" />
        <path
           id="path863"
           style="fill:#ffffff"
           d="m 74.404343,72.269859 c 2.738929,1.972611 7.270889,0.363312 10.117118,-3.596466 2.850808,-3.95755 2.944909,-8.763794 0.205979,-10.737167 -2.740356,-1.971794 -7.269371,-0.36179 -10.120071,3.597229 -2.849282,3.957542 -2.941849,8.766083 -0.203026,10.736404 z"
           inkscape:connector-curvature="0" />
        <path
           id="path865"
           style="fill:#ffffff"
           d="m 82.743156,73.118668 c -1.819519,2.665275 -2.157974,5.605003 -0.754547,6.564056 1.406159,0.961281 4.025917,-0.418442 5.846855,-3.082405 1.82116,-2.665283 2.159394,-5.603539 0.753235,-6.566948 -1.404846,-0.958992 -4.023079,0.419197 -5.845543,3.085297 z"
           inkscape:connector-curvature="0" />
      </g>
    </g>
  </g>
</svg>
