<?xml version="1.0" encoding="UTF-8" standalone="no"?>
<!-- Created with Inkscape (http://www.inkscape.org/) -->

<svg
   xmlns:dc="http://purl.org/dc/elements/1.1/"
   xmlns:cc="http://creativecommons.org/ns#"
   xmlns:rdf="http://www.w3.org/1999/02/22-rdf-syntax-ns#"
   xmlns:svg="http://www.w3.org/2000/svg"
   xmlns="http://www.w3.org/2000/svg"
   xmlns:sodipodi="http://sodipodi.sourceforge.net/DTD/sodipodi-0.dtd"
   xmlns:inkscape="http://www.inkscape.org/namespaces/inkscape"
   width="83.947525mm"
   height="47.366962mm"
   viewBox="0 0 83.947526 47.366963"
   version="1.1"
   id="svg8"
   inkscape:version="0.92.3 (2405546, 2018-03-11)"
   sodipodi:docname="delivery-icon.svg">
  <defs
     id="defs2" />
  <sodipodi:namedview
     id="base"
     pagecolor="#ffffff"
     bordercolor="#666666"
     borderopacity="1.0"
     inkscape:pageopacity="0.0"
     inkscape:pageshadow="2"
     inkscape:zoom="1.4"
     inkscape:cx="57.610551"
     inkscape:cy="30.309474"
     inkscape:document-units="mm"
     inkscape:current-layer="layer1"
     showgrid="false"
     inkscape:window-width="1920"
     inkscape:window-height="1001"
     inkscape:window-x="-9"
     inkscape:window-y="-9"
     inkscape:window-maximized="1"
     fit-margin-top="0"
     fit-margin-left="0"
     fit-margin-right="0"
     fit-margin-bottom="0" />
  <metadata
     id="metadata5">
    <rdf:RDF>
      <cc:Work
         rdf:about="">
        <dc:format>image/svg+xml</dc:format>
        <dc:type
           rdf:resource="http://purl.org/dc/dcmitype/StillImage" />
        <dc:title></dc:title>
      </cc:Work>
    </rdf:RDF>
  </metadata>
  <g
     inkscape:label="Layer 1"
     inkscape:groupmode="layer"
     id="layer1"
     transform="translate(-97.161567,-88.87125)">
    <path
       style="fill:#ffc400;stroke-width:0.08841233"
       d="m 113.42943,136.21965 c -0.0729,-0.0175 -0.43101,-0.08 -0.79571,-0.13893 -2.8887,-0.4664 -5.3671,-3.00805 -5.83823,-5.98722 l -0.10137,-0.64099 h -2.55597 -2.55597 v 0.92832 0.92833 h 1.76825 1.76825 v 1.28888 1.28889 l -2.144,-0.029 c -2.41559,-0.0327 -2.63237,-0.0812 -3.286874,-0.7357 -0.634553,-0.63456 -0.712844,-0.9368 -0.710123,-2.74139 0.0024,-1.44877 0.01958,-1.62708 0.194195,-1.98927 0.487605,-1.01147 1.364352,-1.49962 2.697642,-1.50196 l 0.59679,-8e-4 v -3.53649 -3.5365 h 1.32618 1.32619 v 3.5365 3.53649 h 0.91197 0.91198 l 0.20099,-0.56931 c 0.22136,-0.62705 0.79187,-1.60054 1.30974,-2.2349 0.91083,-1.11569 2.60274,-2.09385 4.18036,-2.41683 3.56026,-0.72887 7.24665,1.41941 8.39227,4.89067 l 0.10903,0.33037 h 11.8846 11.8846 V 109.16188 91.435208 h -19.89278 -19.89276 v 2.519751 2.519752 h -1.32619 -1.32618 V 92.67298 88.87125 h 22.54513 22.54516 v 4.420616 4.420614 h 5.59261 c 6.09553,0 7.10283,0.05694 8.73018,0.493221 5.46887,1.466269 9.50642,5.825229 10.59871,11.442439 0.0993,0.51059 0.19206,1.04769 0.20616,1.19357 0.0253,0.26175 0.0342,0.26609 0.6801,0.33049 0.49243,0.0491 0.83356,0.15195 1.37787,0.41541 1.27701,0.61811 2.12101,1.58643 2.58641,2.96741 l 0.23836,0.70731 0.0308,4.50754 c 0.0353,5.16506 -0.009,5.7239 -0.5475,6.95333 -0.056,0.12796 0.0638,0.14835 1.06949,0.18195 1.29867,0.0434 1.7215,0.1803 2.27905,0.73784 0.63275,0.63276 0.71025,0.93149 0.71025,2.73784 0,1.56417 -0.004,1.60006 -0.24765,2.09574 -0.26391,0.53742 -0.57007,0.84384 -1.15665,1.15764 -0.36281,0.19409 -0.38183,0.19479 -6.08864,0.22044 l -5.7247,0.0258 v -1.28562 -1.28561 h 5.30474 5.30473 v -0.92833 -0.92832 h -6.13518 c -6.75184,0 -6.24253,-0.0435 -6.24253,0.53313 0,0.33181 -0.40269,1.60244 -0.68564,2.16344 -0.37905,0.75154 -0.8588,1.3885 -1.53685,2.04046 -1.67099,1.60674 -3.93294,2.31753 -6.19556,1.94688 -3.19804,-0.52387 -5.61306,-2.95936 -6.14559,-6.19765 l -0.0727,-0.44206 -15.04233,-0.0223 -15.04234,-0.0223 -0.0582,0.376 c -0.39405,2.5439 -1.88035,4.58144 -4.14341,5.68016 -0.4451,0.2161 -1.10476,0.45476 -1.4659,0.53037 -0.64232,0.13447 -2.04187,0.24444 -2.30518,0.18113 z m 2.02074,-2.74564 c 1.34067,-0.42352 2.31479,-1.28053 2.95208,-2.59716 0.34927,-0.7216 0.36803,-0.80262 0.40415,-1.74627 0.0315,-0.82423 0.007,-1.0905 -0.14609,-1.59369 -0.62607,-2.05604 -2.5113,-3.47755 -4.61199,-3.47755 -1.57829,0 -3.14082,0.84324 -4.02171,2.17036 -1.03307,1.55639 -1.06244,3.53679 -0.0769,5.18176 0.57867,0.96584 1.75111,1.83083 2.91456,2.15027 0.7341,0.20156 1.78271,0.16599 2.58586,-0.0877 z m 44.81113,0.003 c 2.06219,-0.6549 3.38634,-2.4534 3.38634,-4.59942 0,-2.23595 -1.46739,-4.10868 -3.66864,-4.68203 -1.59732,-0.41605 -3.27945,0.0731 -4.51684,1.3135 -0.71846,0.72022 -1.11746,1.44561 -1.31789,2.39598 -0.16697,0.79181 -0.16585,1.13242 0.006,1.97091 0.28783,1.40036 1.24925,2.64272 2.53801,3.27961 0.88352,0.43663 1.22256,0.52015 2.15793,0.53161 0.5455,0.006 0.8955,-0.0454 1.4146,-0.21016 z m -8.33673,-7.05297 c 0.23198,-0.78757 0.92615,-1.90089 1.64406,-2.6368 1.85844,-1.90503 4.3978,-2.65621 6.98374,-2.06587 1.38231,0.31556 2.62539,1.05509 3.67838,2.18834 0.80808,0.86968 1.2347,1.59699 1.65797,2.82656 0.0511,0.14824 0.27172,0.15605 3.74715,0.13262 4.11825,-0.0277 3.99514,-0.0102 4.67023,-0.66584 0.67772,-0.65819 0.65419,-0.4458 0.65637,-5.92651 0.002,-5.44401 0.0291,-5.18757 -0.61845,-5.89007 -0.58675,-0.63655 -1.03258,-0.76011 -2.74259,-0.76011 h -1.41128 v -0.97602 c 0,-3.5519 -1.18352,-6.49112 -3.57763,-8.88491 -1.61326,-1.61303 -3.41432,-2.62331 -5.70567,-3.20054 l -0.92833,-0.23384 -6.21097,-0.0314 -6.21095,-0.0314 v 13.30996 13.30996 h 2.11561 2.11562 z m -2.59973,-15.05219 V 103.901 l 5.8131,0.003 5.81312,0.003 3.1158,3.33429 3.11581,3.33429 -0.9055,0.86193 c -0.49802,0.47407 -0.93133,0.85204 -0.96289,0.83992 -0.0316,-0.0121 -0.44931,-0.44257 -0.92833,-0.95657 -0.47901,-0.51401 -1.70121,-1.81699 -2.71598,-2.89551 l -1.84505,-1.96094 h -3.92385 -3.92386 v 6.18886 6.18887 h -1.32619 -1.32618 z m -26.5237,21.21895 v -1.2818 h 13.70391 13.70391 v 1.28198 1.28198 H 136.50505 122.80114 Z M 97.161567,115.83701 v -1.23777 h 10.167413 10.16742 v 1.23777 1.23777 H 107.32898 97.161567 Z m 4.420613,-7.07299 v -1.23777 h 5.30474 5.30474 v 1.23777 1.23778 h -5.30474 -5.30474 z m 13.26185,0 v -1.23777 h 3.05022 3.05023 v 1.23777 1.23778 h -3.05023 -3.05022 z m -17.682463,-7.9571 v -1.237772 h 6.630923 6.63093 v 1.237772 1.23777 h -6.63093 -6.630923 z"
       id="path826"
       inkscape:connector-curvature="0" />
  </g>
</svg>
