<?xml version="1.0" encoding="UTF-8" standalone="no"?>
<!-- Created with Inkscape (http://www.inkscape.org/) -->

<svg
   xmlns:dc="http://purl.org/dc/elements/1.1/"
   xmlns:cc="http://creativecommons.org/ns#"
   xmlns:rdf="http://www.w3.org/1999/02/22-rdf-syntax-ns#"
   xmlns:svg="http://www.w3.org/2000/svg"
   xmlns="http://www.w3.org/2000/svg"
   xmlns:sodipodi="http://sodipodi.sourceforge.net/DTD/sodipodi-0.dtd"
   xmlns:inkscape="http://www.inkscape.org/namespaces/inkscape"
   width="18.607939mm"
   height="18.57869mm"
   viewBox="0 0 18.607939 18.57869"
   version="1.1"
   id="svg8"
   inkscape:version="0.92.3 (2405546, 2018-03-11)"
   sodipodi:docname="guarantee-icon.svg">
  <defs
     id="defs2" />
  <sodipodi:namedview
     id="base"
     pagecolor="#ffffff"
     bordercolor="#666666"
     borderopacity="1.0"
     inkscape:pageopacity="0.0"
     inkscape:pageshadow="2"
     inkscape:zoom="2.8"
     inkscape:cx="-58.575864"
     inkscape:cy="15.791342"
     inkscape:document-units="mm"
     inkscape:current-layer="layer1"
     showgrid="false"
     inkscape:window-width="1920"
     inkscape:window-height="1001"
     inkscape:window-x="-9"
     inkscape:window-y="-9"
     inkscape:window-maximized="1"
     fit-margin-top="0"
     fit-margin-left="0"
     fit-margin-right="0"
     fit-margin-bottom="0" />
  <metadata
     id="metadata5">
    <rdf:RDF>
      <cc:Work
         rdf:about="">
        <dc:format>image/svg+xml</dc:format>
        <dc:type
           rdf:resource="http://purl.org/dc/dcmitype/StillImage" />
        <dc:title></dc:title>
      </cc:Work>
    </rdf:RDF>
  </metadata>
  <g
     inkscape:label="Layer 1"
     inkscape:groupmode="layer"
     id="layer1"
     transform="translate(-134.91979,-92.778691)">
    <path
       style="fill:#ffc400;stroke-width:0.03947048"
       d="m 143.37106,111.34387 c -0.0651,-0.009 -0.26051,-0.0352 -0.43417,-0.0581 -0.48796,-0.0643 -1.17592,-0.22571 -1.69724,-0.39837 -0.57356,-0.18996 -1.60225,-0.68899 -2.10484,-1.02108 -3.20664,-2.11878 -4.78081,-5.88515 -4.03026,-9.64284 0.77776,-3.893945 3.96226,-6.86161 7.92985,-7.389878 0.56775,-0.07559 1.80524,-0.07265 2.41511,0.0058 3.75458,0.482606 6.88814,3.281104 7.80719,6.972406 0.16239,0.652262 0.23544,1.189502 0.26437,1.944522 0.13387,3.49291 -1.76073,6.81307 -4.84123,8.48394 -0.94962,0.51508 -1.94298,0.85254 -3.03923,1.03248 -0.3574,0.0587 -1.99164,0.10991 -2.26955,0.0711 z m 2.46691,-0.98373 c 3.33835,-0.65209 5.97793,-3.26264 6.66419,-6.59087 0.13155,-0.63798 0.17719,-1.23129 0.15312,-1.99029 -0.0518,-1.63412 -0.49002,-3.005534 -1.40278,-4.390417 -1.33613,-2.027232 -3.50013,-3.372445 -5.96712,-3.709359 -0.5379,-0.07346 -1.69499,-0.06314 -2.24981,0.02006 -2.80109,0.420064 -5.1385,2.120179 -6.39296,4.649894 -0.68485,1.381049 -0.98238,3.010812 -0.82839,4.537702 0.42518,4.21622 3.89676,7.47933 8.10943,7.62247 0.55571,0.0189 1.38456,-0.0457 1.91432,-0.14919 z m -7.01714,-3.40019 c -0.25652,-0.12645 -0.36327,-0.39188 -0.36363,-0.90418 -2.7e-4,-0.42669 0.12969,-0.70319 0.39298,-0.83596 0.19162,-0.0966 0.4307,-0.11396 0.62715,-0.0455 0.14216,0.0496 0.1384,0.0386 0.08,0.23342 -0.0432,0.14401 -0.0469,0.1464 -0.14801,0.0936 -0.21681,-0.11314 -0.46578,-0.0277 -0.57207,0.19629 -0.0842,0.17749 -0.0856,0.62021 -0.003,0.79531 0.0705,0.14875 0.24397,0.23776 0.39116,0.20082 0.0896,-0.0225 0.0994,-0.0444 0.0994,-0.22157 v -0.19659 h -0.13791 c -0.13487,0 -0.13815,-0.004 -0.13815,-0.15788 v -0.15789 h 0.27629 0.27629 v 0.4887 0.48869 l -0.17537,0.0441 c -0.24309,0.0612 -0.45273,0.0537 -0.60543,-0.0215 z m 1.40829,-0.024 c -0.24294,-0.16229 -0.27213,-0.27648 -0.2722,-1.0649 l -6e-5,-0.70061 h 0.13417 0.13417 l 0.0167,0.66113 c 0.009,0.36362 0.0301,0.69059 0.0463,0.72659 0.0839,0.18613 0.42406,0.16712 0.49819,-0.0278 0.0213,-0.056 0.0388,-0.38498 0.0388,-0.73091 v -0.62896 h 0.16171 0.16171 l -0.0137,0.70061 c -0.0121,0.62075 -0.0229,0.71633 -0.0948,0.83861 -0.18,0.30639 -0.54056,0.407 -0.81105,0.2263 z m 1.0912,-0.0386 c 0.0127,-0.0488 0.12523,-0.46181 0.25023,-0.91769 l 0.22728,-0.82888 0.18097,-0.0118 c 0.21316,-0.014 0.1658,-0.11571 0.46497,0.99865 0.11073,0.41246 0.2087,0.77214 0.2177,0.79927 0.0114,0.0344 -0.0356,0.0494 -0.15561,0.0494 -0.16776,0 -0.17262,-0.003 -0.19821,-0.14802 -0.052,-0.2932 -0.0441,-0.28617 -0.3192,-0.28617 h -0.25237 l -0.043,0.16776 c -0.0236,0.0923 -0.0504,0.18995 -0.0595,0.21708 -0.01,0.0286 -0.0837,0.0494 -0.17642,0.0494 -0.14629,0 -0.15792,-0.008 -0.13691,-0.0888 z m 0.84591,-0.69073 c -7.4e-4,-0.0163 -0.0419,-0.18946 -0.0919,-0.38484 l -0.0909,-0.35523 -0.0668,0.29603 c -0.0367,0.16281 -0.0774,0.33599 -0.0903,0.38483 -0.0219,0.0827 -0.0109,0.0888 0.15869,0.0888 0.10022,0 0.18178,-0.0133 0.18124,-0.0296 z m 0.71145,-0.12828 v -0.90782 h 0.32672 c 0.42577,0 0.53952,0.0668 0.62226,0.36568 0.0557,0.20105 0.0104,0.40717 -0.12256,0.55866 l -0.11036,0.12568 0.19455,0.36833 c 0.10701,0.20259 0.19456,0.37485 0.19456,0.38281 0,0.008 -0.0708,0.0144 -0.15748,0.0144 h -0.15749 l -0.17842,-0.35522 c -0.13486,-0.26856 -0.19757,-0.35523 -0.25694,-0.35523 -0.0726,0 -0.0786,0.0269 -0.0786,0.35523 v 0.35522 h -0.13815 -0.13814 z m 0.59882,-0.18374 c 0.15899,-0.14389 0.0381,-0.40832 -0.18662,-0.40832 h -0.13591 v 0.23682 0.23683 h 0.12517 c 0.0688,0 0.15765,-0.0294 0.19736,-0.0654 z m 0.54584,1.06195 c 2e-5,-0.0479 0.47186,-1.75123 0.49586,-1.79006 0.0121,-0.0195 0.098,-0.0354 0.19097,-0.0354 h 0.16908 l 0.24391,0.89794 c 0.13415,0.49388 0.24352,0.91129 0.24304,0.92756 -7.4e-4,0.0163 -0.0706,0.0296 -0.15593,0.0296 h -0.15506 l -0.0486,-0.21709 -0.0486,-0.21709 h -0.26563 -0.26562 l -0.0262,0.14801 c -0.0493,0.27799 -0.0556,0.28617 -0.22204,0.28617 -0.0854,0 -0.15521,-0.0133 -0.1552,-0.0296 z m 0.85819,-0.76967 c -0.0102,-0.0271 -0.0509,-0.18699 -0.0904,-0.35523 -0.0395,-0.16825 -0.082,-0.3059 -0.0945,-0.3059 -0.0227,0 -0.16024,0.5676 -0.1602,0.66113 2e-5,0.0323 0.0627,0.0493 0.18186,0.0493 0.12907,0 0.17645,-0.0144 0.16325,-0.0493 z m 0.68114,-0.11061 v -0.90988 l 0.20573,0.0119 0.20572,0.0119 0.27779,0.61968 c 0.15278,0.34084 0.29056,0.63186 0.30616,0.64675 0.0156,0.0149 0.0172,-0.26841 0.003,-0.62955 l -0.0247,-0.65661 h 0.14432 0.14433 v 0.90782 0.90782 h -0.19099 -0.19099 l -0.29253,-0.66113 -0.29252,-0.66114 -0.0108,0.66114 -0.0107,0.66113 h -0.1372 -0.13718 z m 1.89459,0.15995 v -0.74994 h -0.19736 -0.19735 v -0.15788 -0.15788 h 0.53285 0.53285 v 0.15788 0.15788 h -0.17761 -0.17762 v 0.74994 0.74994 h -0.15788 -0.15788 z m 0.90782,-0.15788 v -0.90782 h 0.41443 0.41444 v 0.15788 0.15788 h -0.25655 -0.25656 v 0.19735 0.19735 h 0.23682 0.23683 v 0.15789 0.15788 h -0.23683 -0.23682 v 0.23683 0.23681 h 0.25656 0.25655 v 0.15789 0.15788 h -0.41444 -0.41443 z m 1.10517,0 v -0.90782 h 0.41444 0.41444 v 0.15788 0.15788 h -0.25656 -0.25656 v 0.19735 0.19735 h 0.23682 0.23683 v 0.15789 0.15788 h -0.23683 -0.23682 v 0.23683 0.23681 h 0.25656 0.25656 v 0.15789 0.15788 h -0.41444 -0.41444 z m -5.50467,-1.27398 c -0.46344,-0.25051 -1.0709,-0.93839 -1.57139,-1.77941 -0.96992,-1.62983 -1.96268,-4.438047 -1.96268,-5.551789 0,-0.306557 0.0391,-0.354618 0.28826,-0.354618 0.1941,0 0.77188,-0.103784 1.23136,-0.221187 0.55559,-0.141963 1.05414,-0.335683 1.71696,-0.667162 l 0.57232,-0.286219 0.43418,0.231236 c 0.52961,0.282063 1.09001,0.511038 1.63919,0.669763 0.42809,0.123726 1.21457,0.273569 1.43588,0.273569 0.22475,0 0.28062,0.07608 0.27242,0.37098 -0.0303,1.092199 -0.89523,3.630707 -1.77359,5.205667 -0.54012,0.96846 -1.11695,1.67766 -1.65996,2.04085 -0.16254,0.10871 -0.31624,0.19719 -0.34156,0.1966 -0.0253,-7.4e-4 -0.15194,-0.0583 -0.28139,-0.12828 z m 1.52783,-4.32078 c 0.86303,-0.862815 1.56914,-1.586975 1.56914,-1.609241 0,-0.02221 -0.15998,-0.199719 -0.35553,-0.394353 l -0.35553,-0.353886 -1.2232,1.222737 -1.22322,1.222733 -0.73007,-0.729271 -0.73007,-0.729275 -0.35545,0.353804 c -0.1955,0.19459 -0.35545,0.369971 -0.35545,0.389757 0,0.03583 2.1335,2.193025 2.1707,2.194825 0.0107,7.4e-4 0.72566,-0.705 1.58868,-1.56783 z"
       id="path4606"
       inkscape:connector-curvature="0" />
  </g>
</svg>
