<?xml version="1.0" encoding="UTF-8" standalone="no"?>
<!-- Created with Inkscape (http://www.inkscape.org/) -->

<svg
   xmlns:dc="http://purl.org/dc/elements/1.1/"
   xmlns:cc="http://creativecommons.org/ns#"
   xmlns:rdf="http://www.w3.org/1999/02/22-rdf-syntax-ns#"
   xmlns:svg="http://www.w3.org/2000/svg"
   xmlns="http://www.w3.org/2000/svg"
   xmlns:sodipodi="http://sodipodi.sourceforge.net/DTD/sodipodi-0.dtd"
   xmlns:inkscape="http://www.inkscape.org/namespaces/inkscape"
   width="24.373014mm"
   height="35.03376mm"
   viewBox="0 0 24.373015 35.033759"
   version="1.1"
   id="svg8"
   inkscape:version="0.92.3 (2405546, 2018-03-11)"
   sodipodi:docname="metering-icon.svg">
  <defs
     id="defs2" />
  <sodipodi:namedview
     id="base"
     pagecolor="#ffffff"
     bordercolor="#666666"
     borderopacity="1.0"
     inkscape:pageopacity="0.0"
     inkscape:pageshadow="2"
     inkscape:zoom="0.98994949"
     inkscape:cx="-412.52186"
     inkscape:cy="-58.730791"
     inkscape:document-units="mm"
     inkscape:current-layer="layer1"
     showgrid="false"
     inkscape:window-width="1920"
     inkscape:window-height="1001"
     inkscape:window-x="-9"
     inkscape:window-y="-9"
     inkscape:window-maximized="1"
     fit-margin-top="0"
     fit-margin-left="0"
     fit-margin-right="0"
     fit-margin-bottom="0" />
  <metadata
     id="metadata5">
    <rdf:RDF>
      <cc:Work
         rdf:about="">
        <dc:format>image/svg+xml</dc:format>
        <dc:type
           rdf:resource="http://purl.org/dc/dcmitype/StillImage" />
        <dc:title></dc:title>
      </cc:Work>
    </rdf:RDF>
  </metadata>
  <g
     inkscape:label="Layer 1"
     inkscape:groupmode="layer"
     id="layer1"
     transform="translate(-147.20189,-62.356296)">
    <path
       style="fill:#ffc400;stroke-width:0.06849106"
       d="m 148.38054,97.243157 c -0.75297,-0.262954 -0.7613,-0.06576 0.10882,-2.578833 0.41929,-1.211001 0.76235,-2.238668 0.76235,-2.283704 0,-0.04504 -0.0616,-0.120386 -0.13698,-0.167437 -0.0753,-0.04705 -0.13698,-0.128741 -0.13698,-0.18154 0,-0.0528 0.27168,-0.882958 0.60374,-1.844803 l 0.60374,-1.748807 -1.35486,-0.02099 c -1.63726,-0.02538 -1.58628,1.38e-4 -1.62321,-0.812977 -0.0283,-0.623714 0.055,-0.899821 0.30588,-1.014149 0.11043,-0.05031 0.72563,-0.07769 1.75902,-0.07826 l 1.58919,-9.63e-4 2.39414,-6.924199 2.39414,-6.924198 -0.12872,-0.215107 c -0.64357,-1.075447 -0.8583,-1.763273 -0.8583,-2.749281 0,-1.650497 0.83293,-3.149873 2.23796,-4.02861 l 0.28598,-0.178853 0.0222,1.384575 c 0.0216,1.344682 0.0174,1.39543 -0.14534,1.761277 -0.24368,0.547781 -0.27609,1.398292 -0.0737,1.935015 0.27398,0.726736 0.93346,1.372857 1.60708,1.574532 0.35764,0.107075 1.22576,0.107075 1.5834,0 0.67362,-0.201675 1.3331,-0.847796 1.60708,-1.574532 0.20235,-0.536723 0.16994,-1.387234 -0.0737,-1.935015 -0.16274,-0.365847 -0.16693,-0.416595 -0.14534,-1.761277 l 0.0222,-1.384575 0.28598,0.178853 c 1.40503,0.878737 2.23797,2.378113 2.23797,4.02861 0,0.986008 -0.21474,1.673834 -0.85831,2.749277 l -0.12872,0.215108 2.39414,6.924198 2.39414,6.924199 1.5892,9.63e-4 c 1.03338,6.42e-4 1.64858,0.02795 1.75901,0.07826 0.25093,0.114331 0.3342,0.390435 0.30588,1.014149 -0.0369,0.813134 0.0141,0.787601 -1.62321,0.812977 l -1.35486,0.02099 0.60374,1.748807 c 0.33206,0.961848 0.60374,1.792008 0.60374,1.844806 0,0.0528 -0.0616,0.134489 -0.13698,0.18154 -0.0753,0.04705 -0.13766,0.11666 -0.13848,0.154688 -9.6e-4,0.03803 0.34266,1.065506 0.76331,2.283287 0.74793,2.165295 0.76194,2.21688 0.63504,2.337885 -0.16238,0.154839 -0.99656,0.431463 -1.13773,0.377289 -0.0577,-0.02214 -0.57522,-1.022399 -1.15002,-2.222788 -1.02356,-2.137542 -1.04854,-2.181217 -1.21166,-2.119197 -0.0916,0.03483 -0.25859,0.06333 -0.37107,0.06333 -0.24931,0 -0.183,0.150003 -1.07487,-2.431433 -0.37744,-1.092434 -0.70759,-2.040179 -0.73367,-2.106101 -0.0439,-0.110955 -0.22495,-0.11986 -2.43728,-0.11986 h -2.38986 v 0.218095 c 0,0.378171 -0.24716,0.784075 -0.57367,0.942136 -0.36624,0.177298 -0.54115,0.177298 -0.90739,0 -0.32652,-0.158061 -0.57367,-0.563965 -0.57367,-0.942136 V 88.43028 h -2.38986 c -2.21233,0 -2.39338,0.0089 -2.43728,0.11986 -0.0261,0.06592 -0.35623,1.013667 -0.73367,2.106101 -0.89187,2.581436 -0.82556,2.431433 -1.07487,2.431433 -0.11248,0 -0.2796,-0.02856 -0.37138,-0.06345 -0.1635,-0.06217 -0.18743,-0.02047 -1.18585,2.066879 -0.56044,1.17168 -1.05974,2.17109 -1.10956,2.220914 -0.11565,0.115646 -0.1636,0.110775 -0.67801,-0.06887 z m 9.99829,-11.046661 c 0.0638,-0.56632 0.46719,-0.943147 1.00956,-0.943147 0.54237,0 0.94573,0.376827 1.00956,0.943147 l 0.0356,0.316035 h 2.04582 c 1.12521,0 2.04583,-0.01242 2.04583,-0.02756 0,-0.03428 -4.01913,-11.654061 -4.11256,-11.889869 l -0.0678,-0.171231 h -0.95644 -0.95645 l -0.0678,0.171231 c -0.0934,0.235808 -4.11255,11.855586 -4.11255,11.889869 0,0.01518 0.92062,0.02756 2.04582,0.02756 h 2.04583 z m 0.64933,-17.724281 c -0.34615,-0.126525 -0.46062,-0.231015 -0.608,-0.555005 -0.11218,-0.246605 -0.12477,-0.495224 -0.12612,-2.489573 -0.002,-2.472352 0.007,-2.524059 0.46511,-2.873718 0.34547,-0.263497 0.91301,-0.263497 1.25847,0 0.45819,0.349478 0.46662,0.401457 0.46662,2.876329 0,2.16463 -0.004,2.225563 -0.1541,2.522251 -0.24598,0.485298 -0.79575,0.704752 -1.30198,0.519716 z"
       id="path4619"
       inkscape:connector-curvature="0" />
  </g>
</svg>
