<?xml version="1.0" encoding="UTF-8" standalone="no"?>
<!-- Created with Inkscape (http://www.inkscape.org/) -->

<svg
   xmlns:dc="http://purl.org/dc/elements/1.1/"
   xmlns:cc="http://creativecommons.org/ns#"
   xmlns:rdf="http://www.w3.org/1999/02/22-rdf-syntax-ns#"
   xmlns:svg="http://www.w3.org/2000/svg"
   xmlns="http://www.w3.org/2000/svg"
   xmlns:sodipodi="http://sodipodi.sourceforge.net/DTD/sodipodi-0.dtd"
   xmlns:inkscape="http://www.inkscape.org/namespaces/inkscape"
   width="17.963068mm"
   height="13.368715mm"
   viewBox="0 0 17.963069 13.368716"
   version="1.1"
   id="svg8"
   sodipodi:docname="quote-icon.svg"
   inkscape:version="0.92.3 (2405546, 2018-03-11)">
  <defs
     id="defs2" />
  <sodipodi:namedview
     id="base"
     pagecolor="#ffffff"
     bordercolor="#666666"
     borderopacity="1.0"
     inkscape:pageopacity="0.0"
     inkscape:pageshadow="2"
     inkscape:zoom="1.4"
     inkscape:cx="-152.78318"
     inkscape:cy="-112.54445"
     inkscape:document-units="mm"
     inkscape:current-layer="layer1"
     showgrid="false"
     fit-margin-top="0"
     fit-margin-left="0"
     fit-margin-right="0"
     fit-margin-bottom="0"
     inkscape:window-width="1920"
     inkscape:window-height="1001"
     inkscape:window-x="-9"
     inkscape:window-y="-9"
     inkscape:window-maximized="1" />
  <metadata
     id="metadata5">
    <rdf:RDF>
      <cc:Work
         rdf:about="">
        <dc:format>image/svg+xml</dc:format>
        <dc:type
           rdf:resource="http://purl.org/dc/dcmitype/StillImage" />
        <dc:title></dc:title>
      </cc:Work>
    </rdf:RDF>
  </metadata>
  <g
     inkscape:label="Layer 1"
     inkscape:groupmode="layer"
     id="layer1"
     transform="translate(-149.36622,72.758)">
    <path
       style="fill:#e8e6e1;stroke-width:0.35277778"
       d=""
       id="path826"
       inkscape:connector-curvature="0" />
    <g
       id="g865"
       transform="matrix(0.1689322,0,0,0.1689322,151.7041,-80.603923)"
       style="fill:#e8e6e1">
      <path
         style="fill:#e8e6e1;fill-opacity:1;stroke-width:0.26458332"
         d="m 8.7826885,125.44133 c -6.9618883,-0.62338 -12.9868193,-3.8591 -16.8253449,-9.03612 -3.9332366,-5.30475 -5.7965286,-11.86402 -5.7965286,-20.405255 0,-8.668605 1.65809,-15.884644 5.319738,-23.151599 2.343854,-4.651642 4.6788492,-7.907792 8.30630261,-11.583138 C 6.4582473,54.505747 14.782298,49.834081 25.223311,46.989633 c 2.207726,-0.601451 2.712919,-0.657894 3.575421,-0.399484 1.567955,0.469771 2.870414,2.590708 2.870414,4.674211 0,1.49156 -0.831832,2.100752 -4.497917,3.294065 -4.031509,1.312257 -8.928202,3.631266 -12.062859,5.712809 -2.934631,1.948715 -6.7841568,5.605992 -8.9793252,8.530886 -3.0109291,4.011835 -5.49810489,9.836266 -6.59182355,15.436635 -0.72119855,3.692893 -0.63416915,3.744587 1.97792705,1.174901 3.6216852,-3.562884 7.2748083,-5.063593 13.0883737,-5.37673 10.557414,-0.568653 18.226684,4.631515 21.213121,14.383606 0.663503,2.166639 0.713009,2.665593 0.716595,7.222218 0.0045,5.71269 -0.362578,7.52495 -2.331236,11.50938 -1.400281,2.83406 -3.099909,5.00734 -5.476139,7.00223 -3.184216,2.6732 -8.535551,4.79618 -13.015978,5.1637 -3.889256,0.31902 -4.599877,0.33167 -6.9271965,0.12327 z m 55.8270805,-0.0147 c -8.72699,-0.78609 -15.566667,-5.41815 -19.296527,-13.06824 -2.311064,-4.74008 -3.325347,-9.69322 -3.325347,-16.238963 0,-8.844465 1.656884,-16.096927 5.324605,-23.306703 6.376518,-12.534556 17.381362,-21.103147 32.825005,-25.558201 3.606417,-1.04035 4.472607,-1.035743 5.739799,0.03053 0.841209,0.707832 1.618922,2.613075 1.618922,3.966041 0,1.53226 -0.750895,2.089488 -4.432294,3.289146 -7.215769,2.351405 -12.977801,5.733692 -17.553241,10.303671 -5.168942,5.162772 -8.173098,10.74998 -9.885608,18.385516 -1.067242,4.758484 -0.994127,4.851487 1.717146,2.184236 3.591261,-3.532949 7.242757,-5.046604 12.975991,-5.378936 11.45278,-0.663874 19.744771,5.690398 21.818404,16.719761 0.602813,3.20627 0.420798,8.884982 -0.381413,11.899732 -1.480423,5.56354 -4.654177,10.0159 -9.201671,12.90874 -4.10669,2.61242 -7.467266,3.55469 -14.239604,3.99263 -0.727605,0.047 -2.394479,-0.011 -3.704167,-0.12895 z"
         id="path881"
         inkscape:connector-curvature="0" />
      <path
         style="fill:#e8e6e1;fill-opacity:1;stroke-width:0.26458332"
         d="m 7.0628969,125.28887 c -8.2576586,-1.56542 -13.9227992,-5.68709 -17.4243609,-12.67708 -2.24817,-4.48791 -3.192634,-8.60261 -3.404548,-14.832449 -0.449796,-13.223081 3.43801,-24.839714 11.4907904,-34.334102 6.2161756,-7.328989 15.9384486,-13.210163 26.7676136,-16.1922 4.345985,-1.196758 5.40676,-0.926632 6.554745,1.669164 1.32326,2.992133 0.69089,4.192492 -2.760123,5.239244 C 13.935959,58.514369 4.7553229,66.965182 0.73434965,79.52378 c -0.89818364,2.805274 -1.84106075,7.687561 -1.54232761,7.986294 0.0996897,0.09969 1.0052367,-0.698032 2.01232286,-1.772719 1.0070888,-1.074684 2.5091891,-2.36156 3.338007,-2.85972 5.8524401,-3.517606 14.7919961,-3.85654 21.1943011,-0.803558 4.883647,2.328802 8.611989,7.021203 10.21316,12.85404 0.481581,1.754336 0.574487,2.81768 0.58666,6.714633 0.01262,4.04098 -0.06333,4.91639 -0.596836,6.87904 -1.895438,6.97285 -5.734672,11.62751 -11.98481,14.53028 -3.746608,1.74005 -5.99877,2.18803 -11.467972,2.28113 -2.6193749,0.0446 -5.060156,0.0246 -5.4239581,-0.0443 z m 55.8270811,0 c -5.576298,-1.05711 -9.603938,-3.07571 -13.079846,-6.55543 -5.161957,-5.16763 -7.819326,-12.88799 -7.821491,-22.723508 -0.0053,-23.881068 14.365538,-42.157621 38.339208,-48.75919 4.470948,-1.231153 5.377402,-0.992216 6.618851,1.744689 0.295849,0.652227 0.54052,1.616295 0.543716,2.142374 0.01,1.644195 -0.6551,2.1523 -4.417578,3.374887 -4.003948,1.301046 -9.110183,3.717126 -12.197712,5.771496 -2.778763,1.848924 -6.813235,5.674093 -8.800189,8.343641 -2.826668,3.797736 -4.898044,8.268548 -6.170689,13.318685 -0.695799,2.761075 -1.140905,5.673325 -0.867103,5.673325 0.08663,0 1.144825,-0.98778 2.351531,-2.195065 2.490267,-2.491462 4.203915,-3.502234 7.757374,-4.575577 2.130888,-0.643647 2.794315,-0.71822 6.475177,-0.72785 3.413289,-0.0089 4.446955,0.08518 6.163712,0.561165 7.120606,1.974249 11.982055,6.923828 13.991954,14.245605 0.481582,1.754336 0.574487,2.81768 0.586661,6.714633 0.01693,5.42158 -0.410295,7.51545 -2.348367,11.50938 -2.143144,4.41654 -5.17661,7.40578 -9.795002,9.65222 -4.055274,1.97253 -6.218711,2.43204 -11.906249,2.52885 -2.619375,0.0446 -5.060156,0.0246 -5.423958,-0.0443 z"
         id="path879"
         inkscape:connector-curvature="0" />
      <path
         style="fill:#e8e6e1;fill-opacity:1;stroke-width:0.26458332"
         d="m 6.753562,125.18455 c -10.5377277,-1.77825 -17.60157,-9.28391 -19.933333,-21.1801 -0.598782,-3.05487 -0.803718,-9.520494 -0.419366,-13.230791 2.310612,-22.305221 16.5987617,-38.062639 39.917794,-44.022585 1.588296,-0.405942 1.713193,-0.401415 2.854584,0.103476 0.954453,0.422201 1.297953,0.76386 1.714326,1.705139 0.750749,1.697194 0.892963,2.698316 0.513463,3.614513 -0.415483,1.003064 -0.558628,1.078042 -4.834784,2.53239 C 13.95089,58.997154 5.446904,66.683387 1.4215069,77.433381 c -1.37824095,3.680653 -2.7827101,10.186458 -2.19904455,10.186458 0.0935778,0 1.15181586,-0.986814 2.35164305,-2.192917 2.4640194,-2.476918 4.695658,-3.749561 8.2822675,-4.723161 2.9982951,-0.813898 9.1232961,-0.819217 12.0990511,-0.0105 8.825653,2.398519 14.198848,9.594852 14.670746,19.648559 0.624353,13.3017 -7.188089,23.06321 -19.869893,24.82709 -2.319528,0.32261 -8.1297482,0.3317 -10.002715,0.0156 z m 55.637242,-0.0278 c -0.783868,-0.13017 -2.494187,-0.59481 -3.800708,-1.03254 -8.506351,-2.84989 -13.836144,-9.60549 -15.988582,-20.26579 -0.65528,-3.2454 -0.653407,-12.557351 0.0033,-16.370833 2.255764,-13.099216 8.270587,-23.229338 18.350415,-30.905623 5.332502,-4.060962 13.387913,-7.835825 20.711714,-9.705757 2.962717,-0.756449 4.179284,-0.278437 5.207278,2.046036 1.43189,3.237764 0.821478,4.070199 -4.197749,5.724577 -15.039572,4.957167 -24.01599,14.489776 -27.187445,28.872017 -0.490484,2.224305 -0.68413,4.101042 -0.423153,4.101042 0.06237,0 1.104164,-0.984533 2.315104,-2.18785 3.512304,-3.490188 7.366812,-5.066861 13.181919,-5.39201 7.69902,-0.43049 14.319152,2.628482 18.306822,8.459054 2.208681,3.229425 3.375535,7.209753 3.581678,12.217677 0.532312,12.93182 -6.942198,22.32515 -19.374958,24.34882 -2.590956,0.42173 -8.396851,0.47127 -10.685631,0.0912 z"
         id="path877"
         inkscape:connector-curvature="0" />
      <path
         style="fill:#e8e6e1;fill-opacity:1;stroke-width:0.26458332"
         d="m 6.3595207,125.08138 c -7.6992609,-1.46851 -13.7116038,-6.12054 -17.0116857,-13.16273 -4.848766,-10.347 -4.095408,-26.132646 1.8351883,-38.454019 C -3.1074454,61.602541 7.418907,52.87023 21.702459,48.14673 c 6.263161,-2.071198 7.988596,-1.999456 9.140496,0.380056 0.779132,1.60947 0.947208,2.707967 0.558075,3.647416 -0.408765,0.986845 -0.640998,1.11417 -4.153476,2.277178 -15.388857,5.09537 -24.4351246,14.563272 -27.603367,28.889924 -0.52829352,2.388923 -0.6665595,4.278535 -0.31306557,4.278535 0.11314905,0 0.83526837,-0.715198 1.60470842,-1.589328 2.73931315,-3.112019 6.41181165,-4.98289 11.22816515,-5.719937 4.94286,-0.756407 9.307223,-0.134673 13.684318,1.949423 2.132464,1.015347 2.858621,1.542452 4.789654,3.476755 1.890093,1.893289 2.485093,2.706248 3.508348,4.793503 1.551519,3.164824 2.261656,5.949569 2.462699,9.657295 0.664501,12.25483 -5.74921,21.44385 -17.012329,24.37379 -2.160082,0.56191 -3.367116,0.69691 -6.977538,0.78037 -2.9814363,0.0689 -4.9661473,-0.0136 -6.2596263,-0.26033 z m 55.8251143,-0.002 C 54.004529,123.52534 47.869511,118.5027 44.621825,110.70141 41.0919,102.22214 41.106465,89.975215 44.659187,79.285501 49.612694,64.381004 60.95463,53.635715 77.529539,48.144307 c 6.588032,-2.182673 8.29782,-2.006693 9.411028,0.968621 1.201166,3.210403 0.736438,3.802223 -4.345427,5.533815 -14.65374,4.993066 -23.10128,13.581102 -26.708101,27.152263 -0.67755,2.549371 -1.148244,5.820833 -0.837496,5.820833 0.09358,0 1.151816,-0.986814 2.351643,-2.192917 3.721166,-3.740642 7.659422,-5.238633 13.955458,-5.308227 4.416104,-0.04881 6.794441,0.442765 10.318749,2.132775 2.123281,1.018175 2.866938,1.559311 4.789654,3.485282 1.890093,1.893289 2.485094,2.706248 3.508349,4.793503 1.551519,3.164824 2.261655,5.949569 2.462699,9.657295 0.66394,12.24451 -5.742654,21.42524 -17.012329,24.37889 -2.179093,0.57111 -3.335346,0.70021 -6.977539,0.77907 -2.952056,0.0639 -4.979529,-0.0221 -6.261592,-0.26576 z"
         id="path875"
         inkscape:connector-curvature="0" />
      <path
         style="fill:#e8e6e1;fill-opacity:1;stroke-width:0.26458332"
         d="m 7.7243552,125.28478 c -5.8224496,-0.91158 -10.3154866,-3.13161 -13.9177454,-6.87683 -3.6495483,-3.79438 -5.7140308,-8.1357 -7.0289078,-14.78082 -0.725036,-3.66418 -0.64702,-12.092937 0.154285,-16.668749 3.4252942,-19.559989 16.5392654,-33.591361 36.862175,-39.440909 3.553806,-1.022893 4.673229,-1.110062 5.78926,-0.450805 1.395825,0.824531 2.410571,3.675999 1.817608,5.107535 -0.413409,0.998061 -0.474485,1.030194 -4.506647,2.371116 -13.214019,4.394409 -21.7923977,12.298833 -25.8608293,23.829099 -1.28318148,3.636637 -2.3468593,9.245422 -1.75334869,9.245422 0.0851429,0 1.07287478,-0.938025 2.19495939,-2.084499 1.6999426,-1.736894 2.4572753,-2.284997 4.5415463,-3.286844 3.3945405,-1.631654 5.8704423,-2.1473 10.1743103,-2.118971 6.22839,0.041 10.541979,1.719019 14.441921,5.618011 1.88182,1.88136 2.48316,2.701245 3.508349,4.783397 1.938334,3.936743 2.363073,5.927293 2.371007,11.111817 0.0059,3.87432 -0.07044,4.65391 -0.678621,6.92726 -1.103993,4.12666 -2.974674,7.4818 -5.67975,10.18688 -2.87643,2.87643 -6.99558,5.04662 -11.449364,6.03213 -1.945079,0.4304 -9.281866,0.76166 -10.9802078,0.49576 z m 55.8270808,0 C 57.548202,124.3449 53.128546,122.10859 49.380507,118.11442 43.646597,112.00397 41.163528,102.53548 42.260723,90.965125 44.289254,69.5735 57.877444,53.779434 79.646031,47.51077 c 3.448762,-0.993135 4.590955,-1.095317 5.719572,-0.511689 1.368465,0.70766 2.458474,3.736332 1.862508,5.175121 -0.413409,0.998061 -0.474485,1.030194 -4.506648,2.371116 -15.023242,4.996076 -24.064213,14.550662 -27.225568,28.77224 -0.568846,2.558989 -0.698611,4.302281 -0.320252,4.302281 0.122743,0 0.72861,-0.599424 1.346372,-1.332053 2.270501,-2.69268 5.550207,-4.631179 9.467532,-5.595871 3.221924,-0.793438 8.544425,-0.785945 11.584805,0.01633 3.69821,0.975839 6.301411,2.454053 8.873251,5.038629 3.44034,3.457385 5.13607,7.117977 5.822098,12.568227 0.795367,6.318929 -0.710951,12.996469 -4.015055,17.798809 -2.851552,4.14459 -8.023195,7.41389 -13.723002,8.67513 -1.945079,0.4304 -9.281866,0.76165 -10.980208,0.49576 z"
         id="path873"
         inkscape:connector-curvature="0" />
      <path
         style="fill:#e8e6e1;fill-opacity:1;stroke-width:0.26458332"
         d="m 6.5379821,125.0493 c -8.16393,-1.47682 -14.23126,-6.31328 -17.5366561,-13.979 -5.095671,-11.817656 -3.077259,-29.822823 4.7237236,-42.13779 4.3864009,-6.924564 11.7037596,-13.416804 19.5775634,-17.369962 4.430228,-2.224259 12.528489,-4.953124 14.699045,-4.953124 1.416482,0 2.631493,1.125583 3.215749,2.979055 0.600501,1.90501 0.576789,2.170157 -0.275865,3.084563 -0.546971,0.586581 -1.54867,1.050088 -4.034896,1.867024 C 11.793737,59.50594 2.4880899,69.414604 -0.43275383,83.651089 -1.0804009,86.807796 -1.1380404,87.324733 -0.86142908,87.495688 -0.7181969,87.58421 0.31969996,86.72228 1.4450072,85.580283 4.6212427,82.356943 8.0996058,80.796166 13.408957,80.21194 c 4.739494,-0.521523 9.554339,0.395531 13.497689,2.570821 1.036248,0.571632 2.578409,1.813002 3.880075,3.123284 1.765442,1.777135 2.380453,2.628149 3.364904,4.656169 1.813751,3.736412 2.376906,6.393043 2.376906,11.212836 0,4.75334 -0.54759,7.38859 -2.305815,11.09661 -3.291266,6.94112 -9.323535,11.05843 -18.031695,12.30746 -2.545299,0.36508 -7.2683441,0.30156 -9.6530389,-0.12982 z m 57.0134539,0.21894 C 54.781388,124.07796 48.028203,118.85705 44.62817,110.63859 41.448299,102.9523 41.18992,91.829643 43.956972,81.744832 46.240567,73.422031 50.339423,66.522415 56.577864,60.500049 62.856897,54.438498 70.653326,50.074706 79.92726,47.431011 c 3.290577,-0.938038 4.388553,-1.010994 5.483243,-0.364344 1.395825,0.824531 2.410571,3.675999 1.817608,5.107535 -0.415166,1.002294 -0.526055,1.060272 -4.527862,2.367295 -12.956603,4.231733 -21.802108,12.390297 -25.839615,23.83292 -1.283181,3.636637 -2.346859,9.245422 -1.753348,9.245422 0.08514,0 1.067408,-0.926081 2.182812,-2.057958 4.135802,-4.196884 10.404525,-6.142913 17.21124,-5.342967 5.092171,0.598448 8.768194,2.319547 12.078628,5.655172 1.715664,1.728719 2.366015,2.628189 3.366593,4.656169 3.350217,6.790261 3.383936,15.390145 0.08766,22.357295 -3.273573,6.91916 -9.319829,11.04424 -18.016119,12.29157 -1.789583,0.25669 -6.840315,0.30985 -8.466666,0.0891 z"
         id="path871"
         inkscape:connector-curvature="0" />
      <path
         style="fill:#e8e6e1;fill-opacity:1;stroke-width:0.26458332"
         d="m 6.630499,125.03984 c -10.5404547,-1.7707 -17.890219,-9.77265 -19.795376,-21.55193 -0.929298,-5.745706 -0.750211,-12.106654 0.517516,-18.381613 3.1823197,-15.75174 13.57233764,-28.25907 28.970674,-34.874418 3.663503,-1.573892 9.287451,-3.364235 11.132365,-3.543905 1.364718,-0.132906 1.543714,-0.08339 2.392534,0.661887 0.614878,0.539874 1.069342,1.287375 1.377995,2.266534 0.852911,2.70574 0.241543,3.430193 -4.054978,4.805037 -6.903434,2.20903 -13.212693,5.897597 -17.6109195,10.295821 -5.3219639,5.321966 -8.63917726,11.723951 -10.16104728,19.610114 -0.72482862,3.755972 -0.51166972,3.970123 1.65303718,1.660739 3.7823033,-4.035089 8.3129592,-5.801503 14.9024836,-5.810178 9.660067,-0.01273 16.64558,4.813913 19.407396,13.409527 2.172451,6.761335 1.452459,14.726585 -1.876111,20.755295 -1.640861,2.97194 -5.203179,6.40011 -8.299214,7.98669 -1.309687,0.67116 -3.214687,1.47682 -4.233333,1.79036 -4.168142,1.28297 -9.951299,1.65446 -14.323022,0.92004 z m 55.946701,0.0191 c -10.658186,-1.79357 -17.880416,-9.5844 -19.904082,-21.47112 -0.948367,-5.570562 -0.767302,-12.176009 0.506603,-18.481543 1.268116,-6.276882 3.607811,-11.903083 7.206888,-17.330208 1.518983,-2.290508 2.905098,-3.925726 5.606946,-6.614583 5.047411,-5.023143 9.565603,-8.087595 15.986135,-10.842555 3.862366,-1.657287 9.442254,-3.449759 11.303068,-3.630978 1.364718,-0.132905 1.543714,-0.08339 2.392534,0.661887 0.863566,0.758222 1.820934,2.917658 1.820934,4.107291 0,1.070464 -1.404141,1.979409 -4.762499,3.082914 -11.421975,3.753091 -19.908533,10.673027 -24.212573,19.742927 -1.929199,4.0654 -4.240009,12.506764 -3.599143,13.14763 0.170754,0.170754 0.972026,-0.457584 2.328225,-1.825734 3.210203,-3.238494 6.901447,-4.900924 11.899045,-5.358987 10.788882,-0.988872 19.040442,4.006077 22.039978,13.341553 2.172451,6.761336 1.452459,14.726586 -1.87611,20.755296 -1.640861,2.97194 -5.203179,6.40011 -8.299214,7.98669 -1.309687,0.67115 -3.214687,1.47682 -4.233333,1.79036 -4.123042,1.26909 -9.95232,1.65454 -14.203402,0.93916 z"
         id="path869"
         inkscape:connector-curvature="0" />
      <path
         style="fill:#e8e6e1;fill-opacity:1;stroke-width:0.26458332"
         d="m 7.4821953,125.16246 c -7.93327947,-1.15707 -14.0430362,-5.45627 -17.5800083,-12.37038 -2.586958,-5.05702 -3.559029,-9.62177 -3.557476,-16.705575 0.0018,-8.374726 1.477867,-15.307089 4.7159571,-22.1491 C -2.8980857,61.172387 8.2342364,52.21164 23.892695,47.509897 c 3.148232,-0.945314 5.117603,-0.987526 6.032005,-0.129289 0.878594,0.824627 1.818884,3.314663 1.610302,4.264332 -0.252735,1.150696 -1.127506,1.706853 -4.312258,2.741623 -15.62227,5.075896 -24.859503,14.986967 -27.84965701,29.881238 -0.76588139,3.814937 -0.53808049,4.050776 1.67323021,1.732267 4.111974,-4.311311 8.7081514,-5.966553 15.9125358,-5.730653 3.316615,0.108599 4.007114,0.216173 6.229283,0.970468 4.232333,1.436627 7.167044,3.582397 9.5602,6.990127 3.797059,5.406816 4.883756,13.85429 2.735768,21.26655 -1.782479,6.15096 -5.658789,10.66109 -11.569607,13.46139 -4.361423,2.06626 -11.142641,2.97601 -16.4323017,2.20451 z m 55.8270807,0 c -11.218203,-1.63617 -18.481449,-9.29622 -20.670628,-21.79991 -0.566568,-3.236 -0.643868,-10.499098 -0.150653,-14.155211 2.066628,-15.319552 9.929997,-27.624316 22.549351,-35.28571 6.110565,-3.709813 16.804089,-7.6874 19.372011,-7.205654 1.156234,0.21691 2.125675,1.297088 2.66955,2.974482 0.839719,2.589829 0.214529,3.31351 -4.080597,4.723442 -7.546197,2.477138 -12.886959,5.604523 -17.61092,10.31241 -5.314373,5.296294 -8.637661,11.707042 -10.161047,19.601058 -0.720249,3.732239 -0.515541,3.940135 1.647055,1.672701 4.111974,-4.311311 8.708151,-5.966553 15.912535,-5.730653 3.316616,0.108599 4.007115,0.216173 6.229284,0.970468 4.314129,1.464392 7.405944,3.765619 9.70435,7.222918 2.505062,3.768148 3.592594,7.744984 3.604286,13.179949 0.02164,10.06367 -4.305389,17.39396 -12.582275,21.3152 -4.361424,2.06626 -11.142641,2.97601 -16.432302,2.20451 z"
         id="path867"
         inkscape:connector-curvature="0" />
    </g>
  </g>
</svg>
